<?xml version="1.0" encoding="UTF-8" standalone="no"?>
<!-- Created with Inkscape (http://www.inkscape.org/) -->

<svg
   xmlns:dc="http://purl.org/dc/elements/1.1/"
   xmlns:cc="http://creativecommons.org/ns#"
   xmlns:rdf="http://www.w3.org/1999/02/22-rdf-syntax-ns#"
   xmlns:svg="http://www.w3.org/2000/svg"
   xmlns="http://www.w3.org/2000/svg"
   xmlns:xlink="http://www.w3.org/1999/xlink"
   xmlns:sodipodi="http://sodipodi.sourceforge.net/DTD/sodipodi-0.dtd"
   xmlns:inkscape="http://www.inkscape.org/namespaces/inkscape"
   id="svg2873"
   version="1.1"
   inkscape:version="0.47 r22583"
   width="645.77496"
   height="360.16855"
   sodipodi:docname="opening.svg"
   inkscape:export-filename="/home/artagnon/authored/foss.in/10/res/opening.png"
   inkscape:export-xdpi="142.39571"
   inkscape:export-ydpi="142.39571">
  <metadata
     id="metadata2879">
    <rdf:RDF>
      <cc:Work
         rdf:about="">
        <dc:format>image/svg+xml</dc:format>
        <dc:type
           rdf:resource="http://purl.org/dc/dcmitype/StillImage" />
        <dc:title />
      </cc:Work>
    </rdf:RDF>
  </metadata>
  <defs
     id="defs2877">
    <inkscape:perspective
       sodipodi:type="inkscape:persp3d"
       inkscape:vp_x="0 : 0.5 : 1"
       inkscape:vp_y="0 : 1000 : 0"
       inkscape:vp_z="1 : 0.5 : 1"
       inkscape:persp3d-origin="0.5 : 0.33333333 : 1"
       id="perspective2881" />
    <inkscape:perspective
       id="perspective5599"
       inkscape:persp3d-origin="0.5 : 0.33333333 : 1"
       inkscape:vp_z="1 : 0.5 : 1"
       inkscape:vp_y="0 : 1000 : 0"
       inkscape:vp_x="0 : 0.5 : 1"
       sodipodi:type="inkscape:persp3d" />
  </defs>
  <sodipodi:namedview
     pagecolor="#ffffff"
     bordercolor="#666666"
     borderopacity="1"
     objecttolerance="10"
     gridtolerance="10"
     guidetolerance="10"
     inkscape:pageopacity="0"
     inkscape:pageshadow="2"
     inkscape:window-width="1278"
     inkscape:window-height="778"
     id="namedview2875"
     showgrid="false"
     inkscape:zoom="0.72171254"
     inkscape:cx="104.82482"
     inkscape:cy="160.15386"
     inkscape:window-x="0"
     inkscape:window-y="20"
     inkscape:window-maximized="0"
     inkscape:current-layer="svg2873" />
  <text
     xml:space="preserve"
     style="font-size:40px;font-style:normal;font-weight:normal;fill:#000000;fill-opacity:1;stroke:none;font-family:Bitstream Vera Sans"
     x="171.93076"
     y="38.704193"
     id="text2885"
     inkscape:export-filename="/home/artagnon/authored/foss.in/10/res/opening.png"
     inkscape:export-xdpi="128.09485"
     inkscape:export-ydpi="128.09485"><tspan
       sodipodi:role="line"
       id="tspan2887"
       x="171.93076"
       y="38.704193">bup</tspan></text>
  <text
     xml:space="preserve"
     style="font-size:40px;font-style:normal;font-weight:normal;fill:#000000;fill-opacity:1;stroke:none;font-family:Bitstream Vera Sans"
     x="138.67651"
     y="351.84824"
     id="text2889"
     inkscape:export-filename="/home/artagnon/authored/foss.in/10/res/opening.png"
     inkscape:export-xdpi="128.09485"
     inkscape:export-ydpi="128.09485"><tspan
       sodipodi:role="line"
       id="tspan2891"
       x="138.67651"
       y="351.84824">gimd</tspan></text>
  <text
     xml:space="preserve"
     style="font-size:40px;font-style:normal;font-weight:normal;fill:#000000;fill-opacity:1;stroke:none;font-family:Bitstream Vera Sans"
     x="511.40106"
     y="30.390625"
     id="text2893"
     inkscape:export-filename="/home/artagnon/authored/foss.in/10/res/opening.png"
     inkscape:export-xdpi="128.09485"
     inkscape:export-ydpi="128.09485"><tspan
       sodipodi:role="line"
       id="tspan2895"
       x="511.40106"
       y="30.390625">gitFS</tspan></text>
  <text
     xml:space="preserve"
     style="font-size:40px;font-style:normal;font-weight:normal;fill:#000000;fill-opacity:1;stroke:none;font-family:Bitstream Vera Sans"
     x="0.1171875"
     y="198.04739"
     id="text2897"
     inkscape:export-filename="/home/artagnon/authored/foss.in/10/res/opening.png"
     inkscape:export-xdpi="128.09485"
     inkscape:export-ydpi="128.09485"><tspan
       sodipodi:role="line"
       id="tspan2899"
       x="0.1171875"
       y="198.04739">TicGit</tspan></text>
  <text
     xml:space="preserve"
     style="font-size:40px;font-style:normal;font-weight:normal;fill:#000000;fill-opacity:1;stroke:none;font-family:Bitstream Vera Sans"
     x="512.78668"
     y="335.2211"
     id="text2901"
     inkscape:export-filename="/home/artagnon/authored/foss.in/10/res/opening.png"
     inkscape:export-xdpi="128.09485"
     inkscape:export-ydpi="128.09485"><tspan
       sodipodi:role="line"
       id="tspan2903"
       x="512.78668"
       y="335.2211">gollum</tspan></text>
  <g
     id="gitlogo"
     transform="matrix(6.0349725,0,0,6.0349725,154.44346,94.983846)">
    <rect
       style="fill:#60605d"
       id="shadow"
       width="70"
       height="25"
       ry="2.5"
       x="1"
       y="1" />
    <rect
       style="fill:#ffffff"
       id="background"
       width="70"
       height="25"
       ry="2.5"
       x="0"
       y="0" />
    <rect
       style="fill:#c00000"
       id="minus"
       width="6"
       height="2"
       x="7"
       y="8" />
    <use
       height="1052.3622"
       width="744.09448"
       y="0"
       x="0"
       xlink:href="#minus"
       transform="translate(8,0)"
       id="use5570" />
    <use
       height="1052.3622"
       width="744.09448"
       y="0"
       x="0"
       xlink:href="#minus"
       transform="translate(16,0)"
       id="use5572" />
    <path
       style="fill:#008000"
       id="plus"
       d="m 9,13 0,2 -2,0 0,2 2,0 0,2 2,0 0,-2 2,0 0,-2 -2,0 0,-2 -2,0 z" />
    <use
       height="1052.3622"
       width="744.09448"
       y="0"
       x="0"
       xlink:href="#plus"
       transform="translate(8,0)"
       id="use5575" />
    <use
       height="1052.3622"
       width="744.09448"
       y="0"
       x="0"
       xlink:href="#plus"
       transform="translate(16,0)"
       id="use5577" />
    <g
       style="fill:#008000"
       id="git">
      <path
         id="g"
         d="m 38,11 0,1 -1,0 0,4 1,0 0,1 3,0 0,1 -3,0 0,1 5,0 0,-1 1,0 0,-1 0,-1 0,-1 0,-3 0,-1 -6,0 z m 2,1 1,0 0,4 -1,0 0,-4 z" />
      <path
         id="i"
         d="m 47,8 0,2 3,0 0,-2 -3,0 z m -2,3 0,1 2,0 0,4 -2,0 0,1 7,0 0,-1 -2,0 0,-4 0,-1 -5,0 z" />
      <path
         id="t"
         d="m 54,9 0,2 -2,0 0,1 2,0 0,4 0,1 5,0 0,-1 -2,0 0,-4 2,0 0,-1 -2,0 0,-2 -3,0 z" />
    </g>
  </g>
</svg>
